<!DOCTYPE svg PUBLIC "-//W3C//DTD SVG 1.1//EN" "http://www.w3.org/Graphics/SVG/1.1/DTD/svg11.dtd">
<!-- Uploaded to: SVG Repo, www.svgrepo.com, Transformed by: SVG Repo Mixer Tools -->
<svg fill="#FFFFFF" version="1.1" id="Layer_1" xmlns="http://www.w3.org/2000/svg" xmlns:xlink="http://www.w3.org/1999/xlink" viewBox="0 0 512 512" xml:space="preserve" width="800px" height="800px" stroke="#FFFFFF">
<g id="SVGRepo_bgCarrier" stroke-width="0"/>
<g id="SVGRepo_tracerCarrier" stroke-linecap="round" stroke-linejoin="round"/>
<g id="SVGRepo_iconCarrier"> <g> <g> <path d="M445.627,191.496l-15.134-20.209c-7.853-10.486-12.178-23.474-12.178-36.574V70.974h-92.065v63.739 c0,13.1-4.324,26.088-12.177,36.574l-15.133,20.208c-11.767,15.712-18.248,35.176-18.248,54.808v22.8 c22.303-25.55,55.093-41.722,91.591-41.722c36.499,0,69.288,16.172,91.589,41.722v-22.8 C463.874,226.672,457.393,207.207,445.627,191.496z"/> </g> </g> <g> <g> <path d="M372.284,470.503c-36.499,0-69.289-16.172-91.59-41.722V512h183.18v-83.219 C441.573,454.331,408.783,470.503,372.284,470.503z"/> </g> </g> <g> <g> <path d="M372.284,257.796c-50.257,0-91.145,40.887-91.145,91.145c0.001,50.257,40.888,91.144,91.145,91.144 c50.256,0,91.144-40.887,91.144-91.144S422.542,257.796,372.284,257.796z"/> </g> </g> <g> <g> <rect x="326.256" width="92.063" height="40.556"/> </g> </g> <g> <g> <path d="M245.157,150.267l-2.333-19.992H54.613l-2.335,19.992c-1.178,10.099-2.119,20.425-2.802,30.703H247.96 C247.275,170.68,246.335,160.352,245.157,150.267z"/> </g> </g> <g> <g> <path d="M249.214,211.388H48.219c-0.671,38.869,2.31,77.82,8.897,116.01l1.757,10.188c8.981,52.068,10.917,105.133,5.752,157.719 L62.986,512h171.462l-1.64-16.695c-5.165-52.585-3.229-105.65,5.752-157.719l1.757-10.188 C246.904,289.208,249.885,250.257,249.214,211.388z"/> </g> </g> </g>
</svg>