<!DOCTYPE svg PUBLIC "-//W3C//DTD SVG 1.1//EN" "http://www.w3.org/Graphics/SVG/1.1/DTD/svg11.dtd">
<!-- Uploaded to: SVG Repo, www.svgrepo.com, Transformed by: SVG Repo Mixer Tools -->
<svg fill="#0095D3" height="800px" width="800px" version="1.1" id="Layer_1" xmlns="http://www.w3.org/2000/svg" xmlns:xlink="http://www.w3.org/1999/xlink" viewBox="0 0 511.932 511.932" xml:space="preserve">
<g id="SVGRepo_bgCarrier" stroke-width="0"/>
<g id="SVGRepo_tracerCarrier" stroke-linecap="round" stroke-linejoin="round"/>
<g id="SVGRepo_iconCarrier"> <g> <g> <path d="M419.55,1.328c-0.756-0.82-1.82-1.284-2.936-1.284L96.234,0c-1.116,0-2.18,0.464-2.94,1.284 c-0.756,0.82-2.056,1.92-1.968,3.036l8.984,123.64v0.008c0,0,0,0.008,0,0.012l30.096,364.272 c0.864,10.828,11.32,19.68,22.18,19.68h207.9c10.856,0,20.396-8.852,21.256-19.68L420.598,4.376 C420.686,3.268,420.306,2.148,419.55,1.328z M168.714,167.956c0-6.476,5.252-11.732,11.736-11.732 c6.476,0,11.732,5.252,11.732,11.732s-5.252,11.736-11.732,11.736C173.966,179.688,168.714,174.436,168.714,167.956z M172.442,231.916c0-1.244,0.288-2.468,0.844-3.58c1.356-2.712,4.148-4.44,7.176-4.44c2.12,0,4.176,0.852,5.676,2.352 c1.984,1.984,2.784,4.868,2.104,7.592c-0.892,3.564-4.108,6.092-7.78,6.092C176.046,239.936,172.442,236.336,172.442,231.916z M200.434,381.716c-0.892,3.564-4.108,6.092-7.78,6.092c-4.416,0-8.02-3.6-8.02-8.02c0-1.016,0.196-2.024,0.572-2.968 c1.216-3.04,4.18-5.052,7.448-5.052c2.12,0,4.176,0.852,5.676,2.352C200.314,376.108,201.114,378.992,200.434,381.716z M212.094,302.296c-1.044,3.336-4.156,5.64-7.656,5.64c-4.416,0-8.016-3.6-8.016-8.02c0-1.016,0.192-2.02,0.572-2.964 c1.216-3.044,4.176-5.056,7.444-5.056c1.816,0,3.596,0.624,5.016,1.756C212.03,295.712,213.078,299.144,212.094,302.296z M220.278,219.424c-6.48,0-11.736-5.252-11.736-11.736c0-6.476,5.252-11.732,11.736-11.732c6.484,0,11.732,5.252,11.732,11.732 C232.01,214.172,226.758,219.424,220.278,219.424z M236.466,252.12c0-1.016,0.196-2.024,0.572-2.968 c1.216-3.04,4.176-5.052,7.448-5.052c2.12,0,4.172,0.852,5.672,2.352c1.988,1.984,2.784,4.868,2.104,7.592 c-0.888,3.564-4.104,6.092-7.776,6.092C240.066,260.14,236.466,256.536,236.466,252.12z M264.134,354.02 c-0.98,3.432-4.136,5.832-7.712,5.832c-4.416,0-8.02-3.6-8.02-8.02c0-1.244,0.288-2.468,0.844-3.58 c1.356-2.712,4.144-4.436,7.176-4.436c2.12,0,4.172,0.852,5.672,2.352C264.15,348.224,264.93,351.228,264.134,354.02z M288.322,326.136c-0.98,3.436-4.136,5.836-7.712,5.836c-4.416,0-8.02-3.6-8.02-8.02c0-1.244,0.292-2.468,0.844-3.58 c1.356-2.712,4.144-4.436,7.176-4.436c2.12,0,4.172,0.852,5.672,2.352C288.338,320.34,289.118,323.348,288.322,326.136z M273.21,164.268c0-1.016,0.196-2.024,0.572-2.968c1.216-3.04,4.176-5.052,7.448-5.052c2.12,0,4.172,0.852,5.672,2.352 c1.988,1.984,2.784,4.868,2.104,7.592c-0.888,3.564-4.104,6.092-7.776,6.092C276.81,172.288,273.21,168.684,273.21,164.268z M296.686,277.732c-0.752,3.74-4.044,6.444-7.852,6.444c-4.416,0-8.012-3.592-8.012-8.012c0-0.864,0.136-1.72,0.416-2.54 c1.088-3.26,4.156-5.472,7.596-5.472c2.12,0,4.164,0.848,5.664,2.348C296.394,272.392,297.214,275.108,296.686,277.732z M288.178,231.932c-6.48,0-11.732-5.252-11.732-11.732s5.248-11.736,11.732-11.736s11.736,5.252,11.736,11.736 C299.91,226.68,294.658,231.932,288.178,231.932z M340.594,289.844c-0.892,3.564-4.108,6.092-7.78,6.092 c-4.416,0-8.016-3.6-8.016-8.02c0-1.016,0.192-2.024,0.572-2.968c1.216-3.04,4.176-5.052,7.444-5.052 c2.12,0,4.176,0.852,5.676,2.352C340.474,284.232,341.274,287.116,340.594,289.844z M340.43,203.704 c-6.48,0-11.736-5.252-11.736-11.736s5.252-11.732,11.736-11.732c6.484,0,11.736,5.248,11.736,11.732 S346.91,203.704,340.43,203.704z M387.15,122.016c-2.832,1.052-6.1,1.78-11.136,1.78c-7.652,0-11.244-1.68-15.396-3.62 c-4.384-2.056-9.348-4.38-18.784-4.38c-9.436,0-14.408,2.324-18.788,4.38c-4.152,1.94-7.744,3.62-15.404,3.62 c-7.652,0-11.244-1.68-15.396-3.62c-4.384-2.056-9.348-4.38-18.784-4.38c-9.432,0-14.4,2.324-18.78,4.38 c-4.152,1.94-7.74,3.62-15.392,3.62s-11.236-1.68-15.388-3.62c-4.384-2.056-9.348-4.38-18.78-4.38s-14.4,2.324-18.78,4.38 c-4.152,1.94-7.74,3.62-15.392,3.62c-7.652,0-11.24-1.68-15.388-3.62c-4.384-2.056-9.352-4.38-18.784-4.38 c-4.784,0-8.416,0.6-11.408,1.456l-7.472-93.248l277.056,0.04L387.15,122.016z"/> </g> </g> </g>
</svg>