<!DOCTYPE svg PUBLIC "-//W3C//DTD SVG 1.1//EN" "http://www.w3.org/Graphics/SVG/1.1/DTD/svg11.dtd">
<!-- Uploaded to: SVG Repo, www.svgrepo.com, Transformed by: SVG Repo Mixer Tools -->
<svg fill="#191970" version="1.1" id="Layer_1" xmlns="http://www.w3.org/2000/svg" xmlns:xlink="http://www.w3.org/1999/xlink" viewBox="0 0 512.002 512.002" xml:space="preserve" width="800px" height="800px" stroke="#191970">
<g id="SVGRepo_bgCarrier" stroke-width="0"/>
<g id="SVGRepo_tracerCarrier" stroke-linecap="round" stroke-linejoin="round"/>
<g id="SVGRepo_iconCarrier"> <g> <g> <rect x="447.041" y="240.792" width="64.961" height="30.417"/> </g> </g> <g> <g> <g> <path d="M165.462,240.791h75.329v-75.33C202.332,171.901,171.902,202.331,165.462,240.791z"/> <polygon points="240.791,165.461 240.791,165.461 240.791,165.461 "/> </g> </g> </g> <g> <g> <path d="M271.209,165.461v75.33h75.329C340.098,202.332,309.668,171.902,271.209,165.461z"/> </g> </g> <g> <g> <path d="M165.461,271.209c6.439,38.459,36.87,68.89,75.329,75.33v-75.33H165.461z"/> </g> </g> <g> <g> <path d="M271.209,271.208v75.33c38.459-6.439,68.89-36.87,75.329-75.33H271.209z"/> </g> </g> <g> <g> <rect x="240.792" width="30.417" height="64.961"/> </g> </g> <g> <g> <rect x="240.792" y="447.041" width="30.417" height="64.961"/> </g> </g> <g> <g> <rect y="240.792" width="64.961" height="30.417"/> </g> </g> <g> <g> <path d="M271.209,64.975v69.748c55.259,6.889,99.179,50.81,106.069,106.069h69.748C439.644,147.229,364.771,72.356,271.209,64.975 z"/> </g> </g> <g> <g> <path d="M64.975,240.791h69.748c6.889-55.259,50.81-99.179,106.069-106.069V64.975C147.229,72.356,72.356,147.229,64.975,240.791z "/> </g> </g> <g> <g> <path d="M134.723,271.209H64.975c7.381,93.562,82.254,168.435,175.816,175.816v-69.748 C185.533,370.388,141.612,326.467,134.723,271.209z"/> </g> </g> <g> <g> <path d="M377.277,271.209c-6.889,55.259-50.81,99.179-106.069,106.069v69.748c93.562-7.381,168.435-82.254,175.816-175.816 H377.277z"/> </g> </g> </g>
</svg>